<svg xmlns="http://www.w3.org/2000/svg" enable-background="new 0 0 512 512" viewBox="0 0 512 512" id="category"><path fill="#213250" d="M459.213,14.286H121.189c-5.523,0-10,4.477-10,10s4.477,10,10,10h338.023c10.201,0,18.501,8.299,18.501,18.501
		v338.024c0,5.522,4.478,10,10,10s10-4.478,10-10V52.787C497.714,31.557,480.442,14.286,459.213,14.286z"></path><path fill="#213250" d="M425.012,48.487H86.988c-5.523,0-10,4.477-10,10s4.477,10,10,10h338.023c10.201,0,18.501,8.299,18.501,18.501
		v338.023c0,5.522,4.478,10,10,10s10-4.478,10-10V86.988C463.513,65.759,446.241,48.487,425.012,48.487z"></path><path fill="#0090fb" d="M390.811,82.688H52.787c-21.229,0-38.501,17.271-38.501,38.501v338.023c0,21.229,17.271,38.501,38.501,38.501
		h338.024c21.229,0,38.501-17.271,38.501-38.501V121.189C429.312,99.96,412.04,82.688,390.811,82.688z M356.609,142.59h-34.202
		c-5.522,0-10-4.477-10-10s4.478-10,10-10h34.202c18.086,0,32.801,14.715,32.801,32.801v34.201c0,5.523-4.478,10-10,10
		s-10-4.477-10-10v-34.201C369.41,148.333,363.668,142.59,356.609,142.59z"></path><path fill="#fff" d="M379.41,199.592c5.522,0,10-4.477,10-10v-34.201c0-18.086-14.715-32.801-32.801-32.801h-34.202
		c-5.522,0-10,4.477-10,10s4.478,10,10,10h34.202c7.059,0,12.801,5.743,12.801,12.801v34.201
		C369.41,195.115,373.888,199.592,379.41,199.592z"></path></svg>