<svg xmlns="http://www.w3.org/2000/svg" enable-background="new 0 0 68 68" viewBox="0 0 68 68" id="house"><polygon fill="#FF7E7E" points="8.22 4.653 8.22 22.294 16.229 17.521 16.229 4.653"></polygon><path fill="#EF3D3D" d="M16.2278,4.6543v12.87l-8.01,4.77v-8.82c2.77-0.6,5.4383-4.78,5.4383-8.01c0-0.27-0.02-0.54-0.05-0.81
			H16.2278z"></path><polygon fill="#FBC41A" points="59.102 21.108 59.102 59.385 8.904 59.385 8.904 21.108 34.008 5.732"></polygon><path fill="#F59F02" d="M59.0977,21.1043v38.28h-50.19v-6.2304c39.6517-5.0414,44.29-35.0396,44.29-35.0396l0.12-0.55
			L59.0977,21.1043z"></path><path fill="#FF7E7E" d="M62.7597,26.5911c-0.5768,0-1.1609-0.1539-1.6892-0.4777L34.0082,9.5312L6.9343,26.1134
		c-1.5258,0.9363-3.5192,0.455-4.454-1.0703c-0.9348-1.5258-0.4555-3.5197,1.0703-4.454L32.3169,2.9705
		c1.0392-0.6364,2.3461-0.6353,3.3842,0l28.7541,17.6187c1.5252,0.9348,2.0045,2.9292,1.0697,4.4545
		C64.9139,26.0412,63.8495,26.5911,62.7597,26.5911z"></path><path fill="#DEE1E6" d="M40.4977,41.4143v17.97h-13v-17.97c0-3.59,2.92-6.5,6.5-6.5h0.01
			C37.5877,34.9143,40.4977,37.8243,40.4977,41.4143z"></path><path fill="#C7CBD1" d="M40.4977,41.4143v17.97h-13v-2.36h1.96c3.85,0,6.97-3.12,6.97-6.97v-11c0-1.54-0.53-2.95-1.42-4.06
			C38.1177,35.4743,40.4977,38.1643,40.4977,41.4143z"></path><path fill="#4DABF4" d="M54.5477,31.3113v15.046h-9v-15.046c0-2.484,2.016-4.5,4.5-4.5c1.242,0,2.376,0.504,3.186,1.314
			C54.0437,28.9443,54.5477,30.0693,54.5477,31.3113z"></path><path fill="#1D7BD5" d="M54.5477,31.3143v15.04h-9v-2.27c2.96-0.13,5.31-2.57,5.31-5.55v-9.48c0-0.82-0.22-1.57-0.6-2.23
			c1.16,0.05,2.22,0.54,2.98,1.3C54.0477,28.9443,54.5477,30.0643,54.5477,31.3143z"></path><path fill="#4DABF4" d="M22.4533,31.3113v15.046h-9v-15.046c0-2.484,2.016-4.5,4.5-4.5c1.242,0,2.376,0.504,3.186,1.314
				C21.9493,28.9443,22.4533,30.0693,22.4533,31.3113z"></path><path fill="#1D7BD5" d="M22.4533,31.3143v15.04h-9v-2.27c2.96-0.13,5.31-2.57,5.31-5.55v-9.48c0-0.82-0.22-1.57-0.6-2.23
				c1.16,0.05,2.22,0.54,2.98,1.3C21.9533,28.9443,22.4533,30.0643,22.4533,31.3143z"></path><path fill="#FFF" d="M39.4977,22.2943c0,3.036-2.453,5.5-5.5,5.5c-3.036,0-5.5-2.464-5.5-5.5c0-3.047,2.464-5.5,5.5-5.5
			C37.0447,16.7943,39.4977,19.2473,39.4977,22.2943z"></path><path fill="#DEE1E6" d="M39.4977 22.2943c0 3.04-2.45 5.5-5.5 5.5-2.81 0-5.12-2.1-5.45-4.82.76.41 1.64.64 2.56.64 3.05 0 5.5-2.47 5.5-5.5 0-.23-.0099-.47-.05-.69C38.3077 18.3343 39.4977 20.1743 39.4977 22.2943zM2.0027 60.3843v4.1093c0 .5523.4477 1 1 1h62c.5523 0 1-.4477 1-1v-4.1093c0-.5523-.4477-1-1-1h-62C2.4505 59.3843 2.0027 59.832 2.0027 60.3843z"></path><path d="M45.55 47.3575h9c.55 0 1-.45 1-1v-15.05c0-3.0013-2.4215-5.5-5.5-5.5-3.04 0-5.5 2.47-5.5 5.5v15.05C44.55 46.9075 45 47.3575 45.55 47.3575zM46.55 31.3075c0-1.93 1.57-3.5 3.5-3.5 1.9735 0 3.5 1.6116 3.5 3.5v14.05h-7V31.3075zM13.45 47.3575h9c.56 0 1-.45 1-1v-15.05c0-2.9897-2.3884-5.5-5.5-5.5-3.03 0-5.5 2.47-5.5 5.5v15.05C12.45 46.9075 12.9 47.3575 13.45 47.3575zM14.45 31.3075c0-1.93 1.5699-3.5 3.5-3.5 1.933 0 3.5 1.551 3.5 3.5v14.05h-7V31.3075zM45.5475 51.85h9c.5522 0 1-.4478 1-1s-.4478-1-1-1h-9c-.5522 0-1 .4478-1 1S44.9953 51.85 45.5475 51.85zM22.4533 49.85h-9c-.5522 0-1 .4478-1 1s.4478 1 1 1h9c.5522 0 1-.4478 1-1S23.0055 49.85 22.4533 49.85zM34 28.7975c3.58 0 6.5-2.92 6.5-6.5 0-3.59-2.92-6.5-6.5-6.5-3.59 0-6.5 2.91-6.5 6.5C27.5 25.8775 30.41 28.7975 34 28.7975zM34 17.7975c2.48 0 4.5 2.02 4.5 4.5s-2.02 4.5-4.5 4.5c-2.48 0-4.5-2.02-4.5-4.5S31.52 17.7975 34 17.7975z"></path><path d="M65,58.3875h-4.9v-31.7l0.45,0.28c1.91,1.17,4.55,0.68,5.83-1.4c1.2-1.98,0.61-4.59-1.4-5.83l-28.76-17.62
				c-1.33-0.82-3.09-0.82-4.43,0l-14.56,8.92V5.6527h0.5417c0.5522,0,1-0.4478,1-1s-0.4478-1-1-1H6.6774c-0.5522,0-1,0.4478-1,1
				s0.4478,1,1,1H7.22v11.5148l-4.19,2.57c-2.04,1.24-2.6,3.85-1.4,5.83c1.28,2.08,3.92,2.5699,5.83,1.4l0.44-0.27v31.6899H3
				c-1.1,0-2,0.89-2,2v4.11c0,1.1,0.9,2,2,2h62c1.11,0,2-0.9,2-2v-4.11C67,59.2775,66.11,58.3875,65,58.3875z M9.22,5.6575h6.01
				v6.61l-6.01,3.6801V5.6575z M6.41,25.2575c-1.03,0.6299-2.45,0.28-3.08-0.7401c-0.59-0.98-0.38-2.38,0.74-3.08
				c9.779-5.9829,28.6086-17.5113,28.77-17.61c0.35-0.22,0.76-0.33,1.17-0.33c0.41,0,0.82,0.11,1.17,0.33l28.75,17.61
				c1.1,0.69,1.37,2.08,0.74,3.08c-0.62,1.02-2.05,1.37-3.08,0.7401c-6.07-3.72-20.5099-12.57-27.58-16.9
				C-5.3102,32.4287,54.2029-4.0002,6.41,25.2575z M9.9,25.4775l24.11-14.77l24.09,14.76v32.92H41.5v-16.97c0-4.14-3.36-7.5-7.5-7.5
				s-7.5,3.36-7.5,7.5v16.97H9.9V25.4775z M39.5,58.3875h-11v-16.97c0-3.04,2.47-5.5,5.51-5.5c3.02,0,5.49,2.46,5.49,5.5V58.3875z
				 M65,64.4975H3v-4.11c19.7319,0,43.7718,0,62,0V64.4975z"></path></svg>