<svg xmlns="http://www.w3.org/2000/svg" width="100" height="100" id="linkedin"><path d="M87.877 5.608H11.174c-3.673 0-6.65 2.886-6.65 6.448v77.101c0 3.562 2.978 6.45 6.65 6.45h76.703c3.673 0 6.646-2.89 6.646-6.45V12.056c0-3.561-2.973-6.448-6.646-6.448M31.809 80.943H18.211V40.31h13.598v40.633zm-6.798-46.184h-.091c-4.56 0-7.516-3.119-7.516-7.023 0-3.983 3.043-7.017 7.693-7.017 4.651 0 7.512 3.033 7.602 7.017 0 3.905-2.95 7.023-7.688 7.023m55.816 46.184H67.232V59.204c0-5.464-1.969-9.19-6.885-9.19-3.762 0-5.994 2.514-6.974 4.941-.364.868-.453 2.08-.453 3.292v22.696H39.329s.178-36.823 0-40.634h13.593v5.761c1.805-2.768 5.029-6.717 12.249-6.717 8.947 0 15.656 5.804 15.656 18.292v23.298zM52.834 46.199c.023-.038.057-.084.088-.128v.128h-.088z"></path></svg>